<?xml version="1.0" standalone="no"?>
<!DOCTYPE svg PUBLIC "-//W3C//DTD SVG 20010904//EN"
 "http://www.w3.org/TR/2001/REC-SVG-20010904/DTD/svg10.dtd">
<svg version="1.0" xmlns="http://www.w3.org/2000/svg"
 width="332.000000pt" height="313.000000pt" viewBox="0 0 332.000000 313.000000"
 preserveAspectRatio="xMidYMid meet">

<g transform="translate(0.000000,313.000000) scale(0.100000,-0.100000)"
fill="#000000" stroke="none">
<path d="M2913 2688 c-12 -19 -131 -293 -128 -296 1 -1 17 1 35 4 28 6 36 15
60 68 l28 60 7 -51 c6 -49 7 -51 33 -44 30 9 30 3 12 164 -5 48 -12 92 -15 97
-8 14 -22 12 -32 -2z"/>
<path d="M2842 2343 c-324 -80 -343 -86 -340 -106 3 -19 14 -24 80 -37 43 -8
82 -20 88 -25 7 -8 -11 -60 -59 -170 -66 -154 -74 -185 -46 -185 21 0 660 569
660 588 0 10 -9 18 -20 19 -11 1 -174 -37 -363 -84z"/>
<path d="M1980 2154 c-19 -8 -51 -30 -70 -49 l-35 -35 -44 30 c-104 68 -284
78 -485 26 -328 -85 -865 -496 -1096 -838 -117 -174 -153 -276 -148 -415 2
-83 7 -107 31 -155 41 -83 123 -160 225 -211 85 -42 86 -42 197 -42 l112 0 94
47 c150 74 334 239 527 473 41 50 78 94 83 100 5 5 6 -41 3 -110 -11 -203 25
-341 111 -429 167 -169 457 -89 769 213 256 249 496 580 496 685 0 31 -3 36
-23 36 -17 0 -42 -21 -89 -77 -219 -261 -494 -510 -702 -635 -94 -57 -139 -63
-176 -23 -49 52 -36 234 30 435 82 250 188 443 340 618 39 46 78 99 86 117 40
96 -21 216 -124 245 -49 13 -70 12 -112 -6z m-246 -242 c5 -9 -312 -390 -539
-647 -173 -196 -461 -478 -553 -543 -41 -28 -94 -59 -118 -68 -44 -17 -46 -17
-66 3 -45 46 -43 162 5 283 152 376 626 822 1002 943 44 15 91 28 105 30 48 8
159 7 164 -1z"/>
<path d="M2980 2095 c-19 -20 -22 -32 -18 -75 3 -27 3 -50 1 -50 -2 0 -16 13
-31 30 -27 29 -27 29 -50 10 l-23 -19 72 -88 c74 -91 109 -114 109 -71 0 35
-28 280 -33 284 -2 2 -14 -7 -27 -21z"/>
</g>
</svg>
